# xmcd
#
# Track frame offsets:
#	150
#	10365
#	21750
#	35595
#	45983
#	57976
#	67299
#	74597
#	84295
#	92680
#	101890
#	111070
#
# Disc length: 1583 seconds
#
# Revision: 0
# Processed by: cddbd v1.5.2PL0 Copyright (c) Steve Scherf et al.
# Submitted via: audiograbber 1.83.01
#
DISCID=a1062d0c
DTITLE=Chubby Wise - Bluegrass
DYEAR=1970
DGENRE=Country
TTITLE0=Shackles And Chains
TTITLE1=I Like To Hear 'Em Preach It
TTITLE2=Highway Of Sorrow
TTITLE3=Diesel On My Tail
TTITLE4=The Old Folks Of Home
TTITLE5=Corina
TTITLE6=Rolling In My Sweet Baby's Arms
TTITLE7=Give Mother My Crown
TTITLE8=Lost Indian
TTITLE9=Sunny Side Of The Mountain
TTITLE10=Big Sivler Eagle
TTITLE11=Columbus Stockade Blues
EXTD=this is a CD that I made from my LP
EXTT0=
EXTT1=
EXTT2=
EXTT3=
EXTT4=
EXTT5=
EXTT6=
EXTT7=
EXTT8=
EXTT9=
EXTT10=
EXTT11=
PLAYORDER=
